<svg
  xmlns:dc="http://purl.org/dc/elements/1.1/"
  xmlns:cc="http://creativecommons.org/ns#"
  xmlns:rdf="http://www.w3.org/1999/02/22-rdf-syntax-ns#"
  xmlns="http://www.w3.org/2000/svg"
  xmlns:sodipodi="http://sodipodi.sourceforge.net/DTD/sodipodi-0.dtd"
  xmlns:inkscape="http://www.inkscape.org/namespaces/inkscape"
  viewBox="0 0 40 60"
  height="60"
  width="40"
>
  <g transform="matrix(1.3333333,0,0,-1.3333333,0,122.708)">
    <g transform="matrix(0.41812783,0,0,0.41812783,0,50.287361)">
      <g transform="translate(56.9609,63.5681)">
        <path
          style="fill:none;stroke:#ffffff;stroke-width:4;stroke-linecap:round;stroke-linejoin:round;stroke-miterlimit:4;stroke-dasharray:none;stroke-opacity:1"
          d="m 0,0 c 2.317,3.838 1.085,8.828 -2.753,11.146 -3.838,2.317 -8.828,1.084 -11.145,-2.753 -2.318,-3.838 -1.085,-8.829 2.752,-11.146 1.27,-0.767 2.725,-1.171 4.209,-1.169 -1.042,-6.631 -5.263,-12.333 -11.301,-15.265 -6.039,-2.992 -9.457,-7.208 -11.302,-15.267 2.266,-3.868 0.967,-8.842 -2.902,-11.108 -3.869,-2.265 -8.842,-0.965 -11.107,2.903 -2.266,3.869 -0.967,8.842 2.902,11.107 1.244,0.729 2.659,1.114 4.1,1.114 l 0.014,26.516 c -4.483,-0.006 -8.123,3.623 -8.129,8.107 -0.006,4.483 3.622,8.123 8.106,8.129 4.483,0.006 8.123,-3.623 8.13,-8.106 C -28.424,2.725 -28.829,1.27 -29.595,0"
        />
      </g>
      <g transform="translate(20.4136,33.1316)">
        <path
          style="fill:none;stroke:#ffffff;stroke-width:4;stroke-linecap:round;stroke-linejoin:round;stroke-miterlimit:4;stroke-dasharray:none;stroke-opacity:1"
          d="m 0,0 c -4.483,-0.001 -8.117,-3.637 -8.115,-8.12 10e-4,-4.484 3.637,-8.117 8.12,-8.115 2.166,0 4.241,0.866 5.765,2.404 2.589,2.614 2.801,6.486 1.237,9.815 2.092,1.998 4.9,3.07 7.791,2.972 2.509,0.059 4.582,-0.67 7.79,-2.972 -1.563,-3.329 -1.351,-7.202 1.238,-9.815 3.155,-3.185 8.296,-3.209 11.48,-0.054 3.186,3.156 3.21,8.295 0.055,11.481 -1.525,1.538 -3.599,2.403 -5.764,2.404"
        />
      </g>
    </g>
  </g>
</svg>
